<?xml version="1.0" encoding="utf-8"?>
<!DOCTYPE svg PUBLIC "-//W3C//DTD SVG 1.1//EN" "http://www.w3.org/Graphics/SVG/1.1/DTD/svg11.dtd">
<svg xmlns="http://www.w3.org/2000/svg" viewBox="0 0 64 64">
	<path fill="#DD2A73" d="M63 60.6c0 1.3-1.1 2.4-2.4 2.4H3.4C2.1 63 1 61.9 1 60.6V3.4C1 2.1 2.1 1 3.4 1h57.2C61.9 1 63 2.1 63 3.4v57.2z"/>
	<path fill="#D31C70" d="M58.9 61c1.2 0 2.2-1 2.2-2.2V10.9H2.8"/>
	<path fill="#FDFFFF" d="M50.4 5.9c0 1.2-1 2.2-2.2 2.2H5c-1.2 0-1-1-1-2.2 0-1.2-.2-2.2 1-2.2h43.2c1.2.1 2.2 1 2.2 2.2z"/>
	<path fill="#E6F3F4" d="M4 5.9c0-1.2-.2-2.2 1-2.2h43.2c1.2 0 2.2 1 2.2 2.2"/>
	<circle opacity=".4" fill="#B1BCBC" cx="54.3" cy="6.2" r="1.1"/>
	<circle fill="#FFF" cx="54.3" cy="5.7" r="1.1"/>
	<path fill="#E8EFEE" d="M53.5 4.9c.4-.4 1.2-.4 1.6 0 .4.4.4 1.2 0 1.6"/>
	<g>
		<circle opacity=".4" fill="#B1BCBC" cx="58.8" cy="6.2" r="1.1"/>
		<circle fill="#FFF" cx="58.8" cy="5.7" r="1.1"/>
		<path fill="#E8EFEE" d="M58 4.9c.4-.4 1.2-.4 1.6 0 .4.4.4 1.2 0 1.6"/>
	</g>
	<path fill="#DD2A73" d="M13.6 5l-.1-.1h-.3c-.1 0-.1 0-.1.1l-.2.8-.3-.8h-.5c-.1 0-.1 0-.1.1l-.3.9-.2-.8c0-.2 0-.2-.1-.2h-.3-.1-.4c-.1 0-.1 0-.1.1l-.2.8-.3-.8c0-.1-.1-.1-.2-.1h-.2c-.1 0-.1 0-.2.1l-.2.8-.3-.8c0-.1 0-.1-.1-.1h-.3-.1H8s-.1 0-.1.1l-.2.8-.3-.8c0-.1-.1-.1-.2-.1H7c-.1 0-.1 0-.1.1l-.3.8-.2-.8C6.3 5 6.3 5 6.2 5h-.3s-.1 0-.1.1v.1l.5 1.7c0 .1.1.1.1.1h.3c.1 0 .1 0 .1-.1l.3-.9v-.1.1l.3.8c0 .1.1.1.1.1h.3c.1 0 .1 0 .1-.1l.5-1.5.4 1.5c0 .1.1.1.1.1h.3c.1 0 .1 0 .1-.1l.4-.8v-.1.1l.3.8c0 .1.1.1.1.1h.3c.1 0 .1 0 .1-.1l.5-1.5.4 1.5c0 .1.1.1.1.1h.3c.1 0 .1 0 .1-.1l.4-.8v-.1.1l.3.8c0 .1.1.1.1.1h.3c.1 0 .1 0 .1-.1l.5-1.7c.1 0 .1-.1 0-.1z"/>
	<path fill="#C10E68" d="M50.5 39.7H49v-10c0-.5-.4-1-1-1h-2.6c-.3 0-.6.2-.8.4L39 37.2c-.3-5.5-2.8-8.8-6.8-8.8-4.3 0-7.1 4-7.1 10.2 0 .4 0 .7.1 1.1H25v-10c0-.5-.4-1-1-1h-2.6c-.3 0-.6.2-.8.4l-7.9 11.3c-.1.2-.2.4-.2.6v1.6c0 .5.4 1 1 1h7.3v3.9c0 .5.4 1 1 1H24c.5 0 1-.4 1-1v-3.9h.9c1.1 3.2 3.2 5.1 6.1 5.1 3.1 0 5.3-1.8 6.4-5.1h6.5v3.9c0 .5.4 1 1 1h2.3c.5 0 1-.4 1-1v-3.9h1.5c.5 0 1-.4 1-1v-1.9c-.2-.6-.6-1-1.2-1zm-29.8 0h-3l3-4.1v4.1zm11.4 5.2c-1.6 0-2.6-2.5-2.6-6.3s1.1-6.4 2.7-6.4c2.4 0 2.6 4.4 2.6 6.3-.1 1.9-.3 6.4-2.7 6.4zm12.7-5.2h-3l3-4.1v4.1z"/>
	<path fill="#FFF" d="M50.5 36.5H49v-10c0-.5-.4-1-1-1h-2.6c-.3 0-.6.2-.8.4l-5.6 8c-.3-5.5-2.8-8.8-6.8-8.8-4.3 0-7.1 4-7.1 10.2 0 .4 0 .7.1 1.1H25v-10c0-.5-.4-1-1-1h-2.6c-.3 0-.6.2-.8.4l-7.9 11.3c-.1.2-.2.4-.2.6v1.6c0 .5.4 1 1 1h7.3v3.9c0 .5.4 1 1 1H24c.5 0 1-.4 1-1v-3.9h.9c1.1 3.2 3.2 5.1 6.1 5.1 3.1 0 5.3-1.8 6.4-5.1h6.5v3.9c0 .5.4 1 1 1h2.3c.5 0 1-.4 1-1v-3.9h1.5c.5 0 1-.4 1-1v-1.9c-.2-.5-.6-.9-1.2-.9zm-29.8 0h-3l3-4.1v4.1zm11.4 5.1c-1.6 0-2.6-2.5-2.6-6.3s1.1-6.4 2.7-6.4c2.4 0 2.6 4.4 2.6 6.3-.1 1.9-.3 6.4-2.7 6.4zm12.7-5.1h-3l3-4.1v4.1z"/>
</svg>