<?xml version="1.0" encoding="UTF-8" standalone="no"?>
<!DOCTYPE svg PUBLIC "-//W3C//DTD SVG 1.1//EN" "http://www.w3.org/Graphics/SVG/1.1/DTD/svg11.dtd">
<svg width="100%" height="100%" viewBox="0 0 1000 961" version="1.1" xmlns="http://www.w3.org/2000/svg" xmlns:xlink="http://www.w3.org/1999/xlink" xml:space="preserve" xmlns:serif="http://www.serif.com/" style="fill-rule:evenodd;clip-rule:evenodd;stroke-linejoin:round;stroke-miterlimit:2;">
    <g transform="matrix(1.03333,0,0,0.912227,26.5576,15.5303)">
        <ellipse cx="458.171" cy="509.523" rx="482.364" ry="523.946" style="fill:white;"/>
    </g>
    <g transform="matrix(1.72108,4.21542e-16,-4.21542e-16,1.72108,-355.482,-363.785)">
        <g id="g3080">
            <g>
                <g id="g3074" transform="matrix(0.760865,0,0,0.760865,116.261,91.5191)">
                    <path id="path3061" d="M508.5,221.563C481.046,221.515 466.91,224.164 443.5,233.688C403.802,249.837 371.632,280.219 353.063,319.094C312.652,403.689 347.589,504.42 431.969,546.625C464.443,562.868 500.97,568.143 537.688,561.938C590.333,553.04 637.54,517.855 661.813,469.406C675.072,442.94 680.894,415.626 679.688,385.5C678.691,360.627 673.486,340.002 662.531,317.5C639.18,269.534 595.282,235.568 542.094,224.281C530.768,221.878 527.373,221.595 508.5,221.563ZM506.844,240.219C566.468,239.883 623.529,274.958 648.094,331.938C656.922,352.415 660.387,369.716 660.375,393C660.362,418.237 656.321,436.192 645.531,458.719C625.042,501.497 587.568,530.949 539.5,542.063C525.933,545.199 496.418,545.684 481.656,543C418.03,531.432 368.617,481.726 357.844,418.5C354.959,401.569 355.623,374.417 359.313,359C372,305.98 410.147,264.306 461.25,247.625C476.29,242.716 491.645,240.304 506.844,240.219Z" style="fill:rgb(2,31,91);fill-rule:nonzero;"/>
                    <path id="path3057" d="M424,312L592,312L592,358.094L585.375,357.781L578.781,357.5L576.938,350.281C574.811,341.89 573.693,339.51 570.156,335.719C565.855,331.108 559.85,330 539.313,330L521,330L521,471L557,471L557,489L508.656,489C482.073,489 460.023,488.71 459.656,488.344C459.29,487.977 459,483.927 459,479.344L459,471L495,471L495,330L477.25,330.031C467.488,330.045 457.495,330.526 455.031,331.094C446.213,333.126 441.49,339.181 438.875,351.844L437.594,358L424,358L424,312Z" style="fill:rgb(2,31,91);fill-rule:nonzero;"/>
                    <path id="path3055" d="M567,389L571.969,389C576.451,389 577.112,389.283 578.469,391.906C580.484,395.802 584.455,398.806 588.656,399.594L592.094,400.25L591.781,405.844C591.494,411.26 591.404,411.459 588.281,412.094C583.834,412.998 580.333,415.455 578.5,419C577.097,421.713 576.481,422 571.969,422L567,422L567,412L531,412L531,399L567,399L567,389Z" style="fill:rgb(2,31,91);fill-rule:nonzero;"/>
                    <path id="path3053" d="M432.188,391.094C436.069,390.943 436.232,391.34 437.5,394.375C438.945,397.833 442.353,401 444.625,401C445.51,401 445.564,400.145 444.781,397.594C443.03,391.887 444.063,390.845 451.25,391.188C456.869,391.455 457.527,391.739 457.813,393.75C458.414,397.986 461.51,399 473.719,399L485,399L485,412L474.438,412C462.742,412 458.36,413.393 457.813,417.25C457.52,419.308 456.894,419.512 450.75,419.781C444.151,420.07 444,420.05 444,417.625C444,416.261 444.432,413.973 444.969,412.563C446.104,409.577 445.89,409.504 442.031,411.5C440.327,412.382 438.626,414.424 437.875,416.5C436.607,420.007 436.607,420 430.313,420C424.058,420 424,419.979 424,417.156C424,415.593 425.042,412.341 426.313,409.938L428.625,405.563L426.25,401.313C424.887,398.874 424.005,395.873 424.188,394.281C424.491,391.641 424.79,391.473 430.281,391.188C431.001,391.15 431.633,391.115 432.188,391.094L432.188,391.094Z" style="fill:rgb(2,31,91);fill-rule:nonzero;"/>
                </g>
                <g id="g3067" transform="matrix(0.760865,0,0,0.760865,116.261,91.5191)">
                    <path id="path3047" d="M209.969,593L353,593L353,632.094L347.313,631.813L341.656,631.5L340.313,625.625C338.599,618.057 335.616,612.803 331.656,610.406C328.942,608.764 326.084,608.442 311.25,608.156L294,607.844L294,726.938L323.5,727.5L323.781,734.75L324.094,742L239.906,742L240.219,734.75L240.5,727.5L270,726.938L270,608L254.75,608C246.363,608.003 237.731,608.492 235.563,609.094C228.664,611.009 225.524,615.914 222.563,629.313C221.963,632.026 221.763,632.102 216.219,631.813L210.5,631.5L210.219,612.25L209.969,593Z" style="fill:rgb(2,31,91);fill-rule:nonzero;"/>
                    <path id="path3045" d="M532.219,639L546.063,639L545.5,672.5L539.344,672.781L533.188,673.094L528,665.594C520.093,654.156 513.563,650 503.5,650C493.117,650 488,654.085 488,662.344C488,670.821 493.029,674.201 515.5,680.938C537.594,687.561 545.491,693.032 548.625,703.813C552.914,718.567 545.351,733.736 530.125,740.875C525.074,743.243 523.336,743.5 513,743.5C502.637,743.5 500.926,743.241 495.813,740.844C492.691,739.381 488.124,736.306 485.656,734.031C483.188,731.756 480.957,730.281 480.688,730.719C480.418,731.157 479.644,734.313 478.969,737.75L477.75,744L465,744L465,707L477.969,707L480.125,711.219C483.652,718.131 493.28,727.414 500.156,730.5C505.37,732.84 507.243,733.163 513.563,732.844C522.364,732.399 525.791,730.322 527.969,724.156C529.261,720.498 529.261,719.488 527.969,715.781C525.921,709.906 520.462,706.815 502.5,701.375C486.328,696.478 479.898,693.611 474.469,688.844C468.729,683.804 466.595,678.729 466.563,670C466.53,661.104 469.111,654.835 475.188,648.938C488.369,636.146 512.947,635.715 525.563,648.063L529.625,652.063L530.906,645.531L532.219,639Z" style="fill:rgb(2,31,91);fill-rule:nonzero;"/>
                    <path id="path3043" d="M745.5,639.281C754.243,639.374 762.244,642.117 766.563,647.25C774.02,656.112 775,662.134 775,698.688L775,728L791,728L791,742L737,742L737,728L751.125,728L750.813,699.25C750.498,670.884 750.467,670.448 748,665.531C746.49,662.521 744.234,659.804 742.281,658.688C738.254,656.384 729.848,656.182 724.844,658.281C719.531,660.51 713.414,667.28 710.844,673.813C708.761,679.106 708.62,681.109 708.563,703.5L708.5,727.5L715.25,727.781L722,728.094L722,742L669,742L669,728L684,728L684,655L669,655L669,641L707,641L707,651.219C707,661.044 707.074,661.345 708.656,658.969C712.27,653.543 719.803,646.682 725.125,643.969C731.453,640.743 738.7,639.209 745.5,639.281Z" style="fill:rgb(2,31,91);fill-rule:nonzero;"/>
                    <path id="path3041" d="M612,639.563C600.932,639.616 598.736,639.936 592.75,642.281C571.791,650.493 559.959,668.418 560,691.969C560.044,717.518 573.549,736.335 596.125,742.406C603.146,744.294 619.998,744.393 626.875,742.563C644.972,737.746 658.686,723.49 663.063,705C663.779,701.975 664.375,695.675 664.375,691C664.375,666.702 652.605,649.208 631.281,641.844C625.54,639.861 622.606,639.511 612,639.563ZM611,650.75C621.59,650.808 627.651,654.257 632.375,662.938C639.422,675.885 639.768,705.932 633.031,720.25C627.998,730.947 616.243,735.687 604.875,731.625C593.894,727.701 588.929,719.097 587.031,700.75C585.949,690.289 587.201,673.56 589.563,666.844C593.546,655.516 599.976,650.689 611,650.75Z" style="fill:rgb(2,31,91);fill-rule:nonzero;"/>
                    <path id="path3039" d="M342,641L399,641L399,655L390.406,655C381.971,655 381.796,655.045 382.375,657.25C382.7,658.487 388.264,672.884 394.75,689.25L406.563,719L418.813,687.75C425.551,670.559 431.047,656.163 431.031,655.75C431.016,655.338 427.85,655 424,655L417,655L417,641L459,641L459,654.906L452.844,655.188L446.688,655.5L442.438,665.5C440.108,671 431.376,691.7 423.031,711.5C414.686,731.3 405.988,750.85 403.688,754.938C398.084,764.895 390.218,773.262 383.281,776.656C378.894,778.803 375.981,779.45 369.594,779.688C361.061,780.005 356.376,778.824 351.094,775.063C345.619,771.164 343.353,762.055 346.406,756.188C353.689,742.19 373.297,747.79 371.594,763.375L371.063,768.25L374.25,767.594C381.052,766.233 388.519,758.079 392.5,747.656L394.125,743.406L374.781,699.438L355.438,655.5L348.719,655.219L342,654.906L342,641Z" style="fill:rgb(2,31,91);fill-rule:nonzero;"/>
                </g>
            </g>
        </g>
    </g>
</svg>
