<?xml version="1.0" encoding="UTF-8" standalone="no"?>
<!DOCTYPE svg PUBLIC "-//W3C//DTD SVG 1.1//EN" "http://www.w3.org/Graphics/SVG/1.1/DTD/svg11.dtd">
<svg width="100%" height="100%" viewBox="0 0 303 303" version="1.1" xmlns="http://www.w3.org/2000/svg" xmlns:xlink="http://www.w3.org/1999/xlink" xml:space="preserve" xmlns:serif="http://www.serif.com/" style="fill-rule:evenodd;clip-rule:evenodd;stroke-linejoin:round;stroke-miterlimit:2;">
    <g>
        <g transform="matrix(1.07737,0,0,1.09811,8.57903,3.89627)">
            <ellipse cx="132.426" cy="134.188" rx="139.692" ry="137.054" style="fill:rgb(238,49,36);"/>
        </g>
        <g transform="matrix(1.13352,0,0,1.13352,-17.617,-11.9667)">
            <g transform="matrix(0.793455,0,0,0.793455,51.2268,16.7203)">
                <path d="M46.9,144.3L46.8,144.3L41.6,176.8L30,176.8L21.6,134.9L31.1,134.9L36.1,164.7L36.2,164.7L41.2,134.9L52.7,134.9L57.8,164.7L58,164.7L63.4,134.9L72,134.9L63.8,176.8L52.3,176.8L46.9,144.3Z" style="fill:white;fill-rule:nonzero;"/>
                <path d="M105.4,159.4L95.2,159.4L95.2,176.8L85.4,176.8L85.4,134.9L95.2,134.9L95.2,151.6L105.4,151.6L105.4,134.9L115.2,134.9L115.2,176.8L105.4,176.8L105.4,159.4Z" style="fill:white;fill-rule:nonzero;"/>
                <rect x="132.3" y="134.9" width="9.8" height="41.9" style="fill:white;fill-rule:nonzero;"/>
                <path d="M165.2,142.5L156.1,142.5L156.1,134.9L184.2,134.9L184.2,142.5L175,142.5L175,176.8L165.2,176.8L165.2,142.5Z" style="fill:white;fill-rule:nonzero;"/>
                <path d="M198.1,134.9L222.3,134.9L222.3,142.2L207.6,142.2L207.6,151.6L221.6,151.6L221.6,158.9L207.6,158.9L207.6,169.5L223,169.5L223,176.8L198.1,176.8L198.1,134.9Z" style="fill:white;fill-rule:nonzero;"/>
            </g>
            <g transform="matrix(0.793455,0,0,0.793455,51.2268,16.7203)">
                <path d="M25.2,189.9L40.6,189.9C47.5,189.9 53.4,193 53.4,200.7C53.4,202.4 53.2,209.3 45.1,211L45.1,211.1C48.2,211.5 49.4,213.1 50.9,218.1L55.2,231.8L44.8,231.8L41.6,220.6C40,214.9 38.7,214.9 35.1,214.9L35.1,231.8L25.3,231.8L25.3,189.9L25.2,189.9ZM34.7,207.8L37.8,207.8C41.6,207.8 43.6,205.3 43.6,202.3C43.6,200.6 43.1,197 37.8,197L34.8,197L34.8,207.8L34.7,207.8Z" style="fill:white;fill-rule:nonzero;"/>
                <path d="M85.3,222.5L72.1,222.5L69.2,231.9L59.7,231.9L73.6,190L84.4,190L97.8,231.9L87.9,231.9L85.3,222.5ZM79,198L78.9,198L73.9,215.4L83.3,215.4L79,198Z" style="fill:white;fill-rule:nonzero;"/>
                <path d="M104.7,189.9L120.4,189.9C129.2,189.9 132,195.8 132,200.3C132,207 126.8,209.6 124.4,209.9L124.4,210C129.1,211 132.8,213.5 132.8,220.1C132.8,230.7 122.3,231.7 119.8,231.7L104.7,231.7L104.7,189.9ZM114.3,207L116.7,207C122.3,207 122.5,202.6 122.5,201.8C122.5,200.3 121.7,196.8 116.9,196.8L114.3,196.8L114.3,207ZM114.3,224.7L117.1,224.7C118.4,224.7 123.4,224.7 123.4,219.3C123.4,215.6 121.4,213.8 118.1,213.8L114.3,213.8L114.3,224.7Z" style="fill:white;fill-rule:nonzero;"/>
                <path d="M141.8,189.9L157.5,189.9C166.3,189.9 169.1,195.8 169.1,200.3C169.1,207 163.9,209.6 161.5,209.9L161.5,210C166.2,211 169.9,213.5 169.9,220.1C169.9,230.7 159.4,231.7 156.9,231.7L141.8,231.7L141.8,189.9ZM151.3,207L153.7,207C159.3,207 159.5,202.6 159.5,201.8C159.5,200.3 158.7,196.8 153.9,196.8L151.3,196.8L151.3,207ZM151.3,224.7L154.1,224.7C155.4,224.7 160.4,224.7 160.4,219.3C160.4,215.6 158.4,213.8 155.1,213.8L151.3,213.8L151.3,224.7Z" style="fill:white;fill-rule:nonzero;"/>
                <rect x="178.9" y="189.9" width="9.8" height="41.9" style="fill:white;fill-rule:nonzero;"/>
                <path d="M205.4,197.5L196.2,197.5L196.2,189.9L224.3,189.9L224.3,197.5L215.2,197.5L215.2,231.8L205.4,231.8L205.4,197.5Z" style="fill:white;fill-rule:nonzero;"/>
            </g>
            <g transform="matrix(0.793455,0,0,0.793455,51.2268,16.7203)">
                <path d="M82,61C82.2,60.2 82.2,59.4 82.2,58.6C82.2,55.3 80.7,52.5 79.3,50.7C79.9,50.8 80.6,51 81.3,51C93.1,51.8 123.7,41 134.5,24.1L134.6,24L134.5,24C123.7,18.8 101.3,27.4 90,32.5C97.3,27.6 104.6,22.3 104.6,19.7C104.6,19.2 104.3,18.9 103.9,18.6C100.1,16.5 88.9,19.4 79.8,24.7C70.1,30.4 61.7,38.9 60.1,40.5C59.1,40.8 54.9,41.9 49.8,44.2C42.4,47.7 32.4,54.1 27.2,64.9C26.6,66.1 26.3,67.2 26.3,68.3C26.3,69.4 26.6,70.4 27.2,71.3C31.4,77.9 49.2,78.7 52.9,78.8C38.1,91 22,107.4 14.9,122C14.9,122 13.6,126 15.4,127.6C16.6,128.7 18.8,128.5 22.1,127.2C23.9,126.5 29.2,123.4 35.9,119.5C47.9,112.6 64.2,103.2 69.6,101.9C77.2,99.9 86.9,100.5 98.2,101.1C116.7,102.2 137.7,103.4 156.5,93.8L156.7,93.7L156.6,93.9C156.6,93.9 156,95.9 157.7,98.5C160.7,103 170.2,108.7 198,110.8C198.1,110.8 207.8,111 222.9,127.9C223,127.9 229.9,127.6 231.6,122.7C233.5,117 228.4,104.3 193.2,76.4L193.1,76.4L193.1,76.3C193.1,76.2 195.9,65 186.5,61.1C180.8,58.7 177,60.4 174,61.8C172,62.7 170.3,63.5 168.4,62.9C139.9,54.3 123,54.5 122.8,54.5C106.5,53.5 82,61 82,61" style="fill:white;fill-rule:nonzero;"/>
            </g>
            <g transform="matrix(0.793455,0,0,0.793455,51.2268,16.7203)">
                <path d="M26.4,275.4C27.4,275.9 28.5,276.3 29.7,276.3C32.8,276.3 34.1,274 34.1,270.2L34.1,244.6L44.8,244.6L44.8,271.5C44.8,280.6 40.8,285.1 32.7,285.1C30.5,285.1 27.9,284.6 25.9,283.9L26.4,275.4Z" style="fill:white;fill-rule:nonzero;"/>
                <path d="M80.8,275.9L69.2,275.9L66.6,284.3L56.3,284.3L69.5,244.5L81.3,244.5L94,284.3L83,284.3L80.8,275.9ZM75.4,252.6L75.3,252.6L71,268.2L78.9,268.2L75.4,252.6Z" style="fill:white;fill-rule:nonzero;"/>
                <path d="M116.8,284.3L106,284.3L106,244.5L119.2,244.5C127.5,244.5 133.8,247.6 133.8,257.7C133.8,265.7 128.7,270.4 121.1,270.4L116.7,270.4L116.7,284.3L116.8,284.3ZM118.2,262.8C121.1,262.8 123.2,260.8 123.2,257.6C123.2,253.9 121.2,252.2 118,252.2L116.4,252.2L116.4,262.8L118.2,262.8Z" style="fill:white;fill-rule:nonzero;"/>
                <path d="M165,275.9L153.3,275.9L150.7,284.3L140.4,284.3L153.6,244.5L165.4,244.5L178.1,284.3L167,284.3L165,275.9ZM159.5,252.6L159.4,252.6L155.1,268.2L163,268.2L159.5,252.6Z" style="fill:white;fill-rule:nonzero;"/>
                <path d="M199.5,256.7L199.3,256.7L199.3,284.3L190,284.3L190,244.5L202.4,244.5L212.8,271.9L212.9,271.9L212.9,244.5L222.2,244.5L222.2,284.3L209.7,284.3L199.5,256.7Z" style="fill:white;fill-rule:nonzero;"/>
            </g>
        </g>
    </g>
</svg>
